<svg xmlns="http://www.w3.org/2000/svg" version="1.1" xmlns:xlink="http://www.w3.org/1999/xlink" xmlns:svgjs="http://svgjs.dev/svgjs" width="107" height="86"><svg width="107" height="86" viewBox="0 0 107 86" fill="none" xmlns="http://www.w3.org/2000/svg">
<rect x="1" y="1" width="66" height="66" stroke="#202020" stroke-width="2"></rect>
<path d="M63.6562 70.5625C62.2305 75.0547 59.6133 78.7363 55.8047 81.6074C51.918 84.5371 47.5723 86.002 42.7676 86.002C36.752 86.002 31.625 83.873 27.3867 79.6152C23.1289 75.3574 21 70.2207 21 64.2051C21 58.1895 23.1289 53.0527 27.3867 48.7949C31.625 44.5371 36.752 42.4082 42.7676 42.4082C47.8066 42.4082 52.3086 43.9609 56.2734 47.0664C60.1602 50.1328 62.709 54.0488 63.9199 58.8145H60.4629C59.291 54.9863 57.0938 51.8613 53.8711 49.4395C50.5898 46.9785 46.8887 45.748 42.7676 45.748C37.6699 45.748 33.334 47.5449 29.7598 51.1387C26.1465 54.752 24.3398 59.1074 24.3398 64.2051C24.3398 69.3027 26.1367 73.6484 29.7305 77.2422C33.3242 80.8555 37.6699 82.6621 42.7676 82.6621C46.0098 82.6621 49.0664 81.832 51.9375 80.1719C54.6719 78.5703 56.8789 76.4219 58.5586 73.7266H35.4727V70.5625H63.6562ZM103.436 82.252V85.3281H71.4727V43.3457H74.5488V82.252H103.436Z" fill="#202020"></path>
</svg><style>@media (prefers-color-scheme: light) { :root { filter: none; } }
@media (prefers-color-scheme: dark) { :root { filter: none; } }
</style></svg>