<svg width="81" height="66" viewBox="0 0 81 66" fill="none" xmlns="http://www.w3.org/2000/svg">
<g clip-path="url(#clip0_3425_2487)">
<path d="M45.6523 2.07923C45.6523 2.07923 42.9107 -0.080569 39.5001 2.0356C39.5001 2.0356 36.4313 4.07905 39.1001 6.66791L49.3247 14.9944L18.142 15.0235C18.142 15.0235 13.7788 14.9072 12.5498 18.8559C12.5498 18.8559 11.6917 22.5865 16.4767 22.8483C21.2836 22.8483 32.2789 22.8192 32.2789 22.8192L3.96152 44.5554C3.96152 44.5554 -0.656244 47.9369 2.12169 52.1256C2.12169 52.1256 4.85598 55.8416 10.1282 52.1401C15.4441 47.7914 25.5232 39.5449 25.5232 39.5449C25.5232 39.5449 25.2396 41.2466 25.3196 42.2647C25.3996 43.2828 27.3049 63.6373 52.4662 64.8953C76.7985 63.7609 80.8418 44.3518 79.5765 36.6943C79.5765 36.6943 79.1183 32.3165 76.2531 27.6042C76.2531 27.6042 74.5878 24.3027 70.3846 21.0739C66.1813 17.8451 45.6523 2.07923 45.6523 2.07923Z" fill="#202020" stroke="#202020" stroke-width="2" stroke-linejoin="round"/>
<path d="M52.459 52.4164C61.4072 52.4164 68.6612 45.9275 68.6612 37.9232C68.6612 29.9188 61.4072 23.4299 52.459 23.4299C43.5108 23.4299 36.2568 29.9188 36.2568 37.9232C36.2568 45.9275 43.5108 52.4164 52.459 52.4164Z" fill="#FAFAFA" stroke="#202020" stroke-width="2" stroke-linejoin="round"/>
<path d="M52.8005 46.6715C58.3108 46.6715 62.7778 42.5431 62.7778 37.4505C62.7778 32.3579 58.3108 28.2295 52.8005 28.2295C47.2902 28.2295 42.8232 32.3579 42.8232 37.4505C42.8232 42.5431 47.2902 46.6715 52.8005 46.6715Z" fill="#202020" stroke="#202020" stroke-width="2" stroke-linejoin="round"/>
</g>
<defs>
<clipPath id="clip0_3425_2487">
<rect width="80" height="65.245" fill="white" transform="translate(0.5 0.377502)"/>
</clipPath>
</defs>
</svg>
