<svg width="81" height="80" viewBox="0 0 81 80" fill="none" xmlns="http://www.w3.org/2000/svg">
<g clip-path="url(#clip0_3425_2483)">
<path d="M36.9491 44.7014L50.9806 48.9428C50.0377 52.8784 48.5533 56.1652 46.5275 58.8033C44.5002 61.443 41.9852 63.4342 38.9811 64.7772C35.9766 66.1203 32.1534 66.7919 27.5105 66.7919C21.8795 66.7919 17.2789 65.9734 13.7089 64.337C10.1383 62.7 7.05844 59.822 4.46594 55.7009C1.87406 51.5803 0.578125 46.3053 0.578125 39.8763C0.578125 31.3052 2.85844 24.7175 7.41703 20.1139C11.9764 15.5106 18.427 13.2081 26.7694 13.2081C33.2969 13.2081 38.4278 14.5286 42.1616 17.1669C45.8975 19.8063 48.6708 23.8597 50.4855 29.3256L36.3478 32.4711C35.8534 30.8933 35.3345 29.738 34.7931 29.0073C33.8973 27.7825 32.8017 26.84 31.5052 26.18C30.2092 25.5206 28.7608 25.1898 27.1583 25.1898C23.5286 25.1898 20.7483 26.6497 18.8159 29.5681C17.3563 31.7339 16.6256 35.1347 16.6256 39.7703C16.6256 45.5134 17.4969 49.4497 19.24 51.5803C20.9837 53.7095 23.435 54.7739 26.593 54.7739C29.6553 54.7739 31.97 53.9141 33.5381 52.1933C35.1053 50.475 36.2423 47.9759 36.9491 44.7014ZM76.3352 37.3842L75.2642 42.7423H80.4219V48.5645H74.1012L72.6169 55.9898H66.6153L68.1039 48.5645H63.4525L61.9533 55.9898H55.9939L57.4825 48.5645H54.5806V42.7423H58.6505L59.7248 37.3842H54.5806V31.562H60.8928L62.4066 24.0102H68.408L66.8842 31.562H71.5131L73.0278 24.0102H79.008L77.4991 31.562H80.4219V37.3842H76.3352ZM70.3464 37.3842H65.7089L64.6275 42.7423H69.2719L70.3464 37.3842Z" fill="#202020"/>
</g>
<defs>
<clipPath id="clip0_3425_2483">
<rect width="80" height="80" fill="white" transform="translate(0.5)"/>
</clipPath>
</defs>
</svg>
