<svg width="141" height="175" viewBox="0 0 141 175" fill="none" xmlns="http://www.w3.org/2000/svg">
<g clip-path="url(#clip0_3536_4194)">
<path d="M2.09082 173.409V1.59082H87.3476L121.409 35.6522V103.409H115.841V42.159H80.8408V7.159H7.659V167.841H121.409V173.409H2.09082Z" fill="#202020"/>
<path d="M86.6795 3.18182L119.818 36.3205V101.818H117.432V40.5682H82.4318V5.56818H6.06818V169.432H119.818V171.818H3.68182V3.18182H86.6795ZM88 0H0.5V175H123V166.25H9.25V8.75H79.25V43.75H114.25V105H123V35L88 0Z" fill="#202020"/>
<path d="M35.5 155.909C20.8795 155.909 19.7023 142.084 19.6545 141.495V129.643C19.6545 124.648 25.0955 115.341 35.5 115.341C43.1045 115.341 47.3205 120.304 48.9273 122.754L43.9159 125.268C41.0364 121.132 36.5659 120.909 35.6273 120.909H35.4205C28.2455 120.909 25.6205 126.795 25.2386 129.914V130.009V141.145C25.2386 144.264 28.8659 150.341 35.5159 150.341C40.0182 150.341 42.675 147.684 43.9159 145.966L48.9273 148.479C47.8614 150.166 46.6364 151.661 43.8364 153.539C40.3841 155.877 35.5636 155.893 35.5159 155.893L35.5 155.909Z" fill="#202020"/>
<path d="M35.5001 116.932C41.1001 116.932 44.6478 119.891 46.541 122.182L44.3614 123.264C41.0683 119.541 36.6296 119.318 35.6274 119.318C35.5478 119.318 35.4842 119.318 35.4364 119.318C27.116 119.35 24.0933 126.127 23.6637 129.723V129.914L23.6478 130.105V141.145C23.6478 145.536 28.2614 151.932 35.516 151.932C39.5728 151.932 42.516 149.991 44.3455 147.97L46.5569 149.084C45.7455 150.07 44.6796 151.057 42.9455 152.234C39.9069 154.286 35.5637 154.318 35.516 154.318C22.9001 154.318 21.4205 143.15 21.2614 141.48V129.643C21.2614 125.332 26.2887 116.932 35.516 116.932M35.5001 113.75C24.316 113.75 18.0637 123.677 18.0637 129.643V141.607C18.0637 141.607 19.1614 157.5 35.5001 157.5C35.6433 157.5 40.8296 157.484 44.7114 154.875C48.641 152.218 49.8024 150.15 51.1546 147.827L43.3114 143.898C43.3114 143.898 41.0524 148.75 35.5001 148.75C29.9478 148.75 26.8137 143.627 26.8137 141.145V130.105C26.8137 130.105 27.7364 122.5 35.5001 122.5C35.5001 122.5 35.5478 122.5 35.6274 122.5C36.4387 122.5 40.9569 122.707 43.3114 127.352L51.1546 123.423C51.1546 123.423 46.6842 113.75 35.5001 113.75Z" fill="#202020"/>
<path d="M63.3408 155.909V150.341H83.6249C86.0431 150.277 89.5908 148.639 89.5908 144.375C89.5908 140.111 86.0431 138.473 83.6567 138.409H74.8431C74.0954 138.409 71.184 138.314 68.4635 136.818C65.059 134.941 63.3408 131.6 63.3408 126.875C63.3408 115.898 72.8226 115.341 74.7317 115.341H95.159V120.909H74.8749C72.4567 120.957 68.909 122.579 68.909 126.875C68.9408 129.293 70.5635 132.841 74.8749 132.841H83.6249C85.6772 132.841 95.159 133.414 95.159 144.375C95.159 144.534 95.4454 149.466 92.3431 152.775C90.3863 154.859 87.459 155.909 83.6249 155.909H63.3408Z" fill="#202020"/>
<path d="M74.7636 116.932H74.8114H74.8591H93.5523V119.318H74.7955C71.7727 119.366 67.3023 121.434 67.3023 126.923C67.35 129.945 69.4023 134.432 74.8591 134.432H83.6886H83.7364C86.0432 134.432 93.5523 135.148 93.5523 144.375V144.598C93.5523 144.598 93.775 148.877 91.1818 151.677C89.5432 153.443 86.9977 154.334 83.6091 154.334H64.9159V151.948H83.6886C86.6955 151.868 91.1659 149.8 91.1659 144.391C91.1659 138.982 86.6955 136.914 83.6091 136.834H74.7636H74.7159C72.425 136.834 64.9159 136.118 64.9159 126.891C64.9159 117.664 72.4091 116.948 74.7159 116.948H74.7477M74.7318 113.75C73.3 113.75 61.75 114.148 61.75 126.875C61.75 139.602 73.3 140 74.7318 140C74.8273 140 74.875 140 74.875 140H83.625C83.625 140 88 140.111 88 144.375C88 148.639 83.625 148.75 83.625 148.75H61.75V157.5H83.625C97.6727 157.5 96.75 144.375 96.75 144.375C96.75 131.632 85.1523 131.25 83.7523 131.25C83.6568 131.25 83.625 131.25 83.625 131.25H74.875C70.5636 131.25 70.5 126.875 70.5 126.875C70.5 122.58 74.875 122.5 74.875 122.5H96.75V113.75H74.875C74.875 113.75 74.8273 113.75 74.7318 113.75Z" fill="#202020"/>
<path d="M107.091 155.909V150.341H127.375C129.793 150.277 133.341 148.639 133.341 144.375C133.341 140.111 129.793 138.473 127.407 138.409H118.593C117.846 138.409 114.934 138.314 112.214 136.818C108.809 134.941 107.091 131.6 107.091 126.875C107.091 115.898 116.573 115.341 118.482 115.341H138.909V120.909H118.625C116.207 120.957 112.659 122.579 112.659 126.875C112.691 129.293 114.314 132.841 118.625 132.841H127.375C129.427 132.841 138.909 133.414 138.909 144.375C138.909 144.534 139.196 149.466 136.093 152.775C134.137 154.859 131.209 155.909 127.375 155.909H107.091Z" fill="#202020"/>
<path d="M118.514 116.932H118.561H118.609H137.302V119.318H118.545C115.523 119.366 111.052 121.434 111.052 126.923C111.1 129.945 113.152 134.432 118.609 134.432H127.439H127.486C129.793 134.432 137.302 135.148 137.302 144.375V144.486V144.582C137.302 144.63 137.525 148.925 134.884 151.709C133.245 153.443 130.716 154.318 127.343 154.318H108.65V151.932H127.423C130.43 151.852 134.9 149.784 134.9 144.375C134.9 138.966 130.43 136.898 127.343 136.818H118.498H118.45C116.159 136.818 108.65 136.102 108.65 126.875C108.65 117.648 116.143 116.932 118.45 116.932H118.482M118.466 113.75C117.034 113.75 105.484 114.148 105.484 126.875C105.484 139.602 117.034 140 118.466 140C118.561 140 118.609 140 118.609 140H127.359C127.359 140 131.734 140.111 131.734 144.375C131.734 148.639 127.359 148.75 127.359 148.75H105.484V157.5H127.359C141.407 157.5 140.484 144.375 140.484 144.375C140.484 131.632 128.886 131.25 127.486 131.25C127.391 131.25 127.359 131.25 127.359 131.25H118.609C114.298 131.25 114.234 126.875 114.234 126.875C114.234 122.58 118.609 122.5 118.609 122.5H140.484V113.75H118.609C118.609 113.75 118.561 113.75 118.466 113.75Z" fill="#202020"/>
<path d="M86.4089 36.5906V8.00195L114.998 36.5906H86.4089Z" fill="#FAFAFA"/>
<path d="M87.9999 11.8362L111.164 34.9998H87.9999V11.8362ZM84.8181 4.16797V38.1816H118.832L113.407 32.7566L90.2431 9.59297L84.8181 4.16797Z" fill="#202020"/>
</g>
<defs>
<clipPath id="clip0_3536_4194">
<rect width="140" height="175" fill="white" transform="translate(0.5)"/>
</clipPath>
</defs>
</svg>
