<svg width="40" height="40" viewBox="0 0 40 40" fill="none" xmlns="http://www.w3.org/2000/svg">
<path d="M19.4672 25.6503C18.7025 26.8522 17.9688 28.028 16.3248 29.1702C15.4455 29.7866 13.4214 30.991 10.5444 30.991C5.05539 30.991 0.625 27.0004 0.625 19.9844C0.625 13.8527 4.79258 9.00897 10.6614 9.00897C13.0391 9.00897 15.1516 9.83093 16.7073 11.064C18.1459 12.2085 18.8196 13.3533 19.4075 14.3808L15.2997 16.4334C15.0058 15.7595 14.652 15.0546 13.744 14.2923C12.7452 13.499 11.7487 13.2648 10.8955 13.2648C7.55016 13.2648 5.78898 16.3762 5.78898 19.8387C5.78898 24.3885 8.1093 26.6467 10.8955 26.6467C13.5958 26.6467 14.683 24.7684 15.3857 23.5666L19.4672 25.6503ZM33.8573 9.65421H39.375L32.1846 30.3745H26.9036L19.8017 9.65421H25.3193L29.6039 24.3886L33.8573 9.65421Z" fill="#202020"/>
</svg>
