<svg width="46" height="46" viewBox="0 0 46 46" fill="none" xmlns="http://www.w3.org/2000/svg">
<path d="M23 4.25C20.5377 4.25 18.0995 4.73498 15.8247 5.67726C13.5498 6.61953 11.4828 8.00065 9.74175 9.74175C6.22544 13.2581 4.25 18.0272 4.25 23C4.25 31.2875 9.63125 38.3187 17.075 40.8125C18.0125 40.9625 18.3125 40.3812 18.3125 39.875V36.7062C13.1187 37.8312 12.0125 34.1937 12.0125 34.1937C11.15 32.0187 9.93125 31.4375 9.93125 31.4375C8.225 30.275 10.0625 30.3125 10.0625 30.3125C11.9375 30.4437 12.9312 32.2437 12.9312 32.2437C14.5625 35.0937 17.3187 34.25 18.3875 33.8C18.5562 32.5812 19.0437 31.7562 19.5687 31.2875C15.4062 30.8187 11.0375 29.2062 11.0375 22.0625C11.0375 19.9812 11.75 18.3125 12.9687 16.9812C12.7812 16.5125 12.125 14.5625 13.1562 12.0312C13.1562 12.0312 14.7312 11.525 18.3125 13.9437C19.7937 13.5312 21.4062 13.325 23 13.325C24.5937 13.325 26.2062 13.5312 27.6875 13.9437C31.2687 11.525 32.8437 12.0312 32.8437 12.0312C33.875 14.5625 33.2187 16.5125 33.0312 16.9812C34.25 18.3125 34.9625 19.9812 34.9625 22.0625C34.9625 29.225 30.575 30.8 26.3937 31.2687C27.0687 31.85 27.6875 32.9937 27.6875 34.7375V39.875C27.6875 40.3812 27.9875 40.9812 28.9437 40.8125C36.3875 38.3 41.75 31.2875 41.75 23C41.75 20.5377 41.265 18.0995 40.3227 15.8247C39.3805 13.5498 37.9993 11.4828 36.2582 9.74175C34.5171 8.00065 32.4502 6.61953 30.1753 5.67726C27.9005 4.73498 25.4623 4.25 23 4.25Z" fill="#202020"/>
</svg>
