<svg width="175" height="167" viewBox="0 0 175 167" fill="none" xmlns="http://www.w3.org/2000/svg">
<g clip-path="url(#clip0_3536_4445)">
<path d="M125.433 83.3721C123.504 83.3721 121.958 84.934 121.958 86.8625C121.958 88.791 123.52 90.337 125.433 90.337C127.345 90.337 128.923 88.7751 128.923 86.8625C128.923 84.9499 127.361 83.3721 125.433 83.3721Z" fill="#202020"/>
<path d="M12.0971 112.873L12.0493 118.898C12.0493 121.591 12.0971 124.54 12.0971 125.129C12.0971 151.618 45.6946 164.353 87.4523 164.496H87.548C129.306 164.353 162.887 151.618 162.887 125.129C162.887 124.524 162.887 115.567 162.887 112.873" stroke="#202020" stroke-width="6" stroke-linecap="round" stroke-linejoin="round"/>
<path d="M158.01 32.2108C152.719 34.8725 147.587 37.8848 142.725 41.1043C140.303 38.6976 137.562 36.7213 134.868 34.6493C132.222 32.5296 129.258 30.9677 126.437 29.1667C127.281 22.903 127.696 16.7509 127.855 10.3279C120.572 6.6621 112.81 4.23952 104.952 2.48633C101.812 7.76183 98.9436 13.4677 96.4573 19.046C93.4928 18.5519 90.5283 18.3606 87.5479 18.3288C87.5479 18.3288 87.5001 18.3288 87.4841 18.3288C87.4682 18.3288 87.4523 18.3288 87.4204 18.3288C84.44 18.3606 81.4596 18.5519 78.4951 19.046C75.9928 13.4677 73.1399 7.76183 70.0001 2.48633C62.1585 4.22358 54.3808 6.6621 47.113 10.3279C47.2724 16.7509 47.7027 22.9189 48.5315 29.1667C45.7105 30.9836 42.73 32.5296 40.1003 34.6493C37.4227 36.7213 34.6813 38.6817 32.2428 41.1043C27.3976 37.9007 22.2496 34.8725 16.9582 32.2108C11.2524 38.347 5.9131 44.9772 1.56201 52.3884C4.84525 57.6958 8.256 62.6685 11.9536 67.3702H12.0493V112.873C12.129 112.873 12.2086 112.873 12.3043 112.873L40.1959 115.567C41.6622 115.71 42.8097 116.89 42.9054 118.356L43.766 130.676L68.1034 132.413L69.7769 121.05C70.0001 119.583 71.2592 118.484 72.7414 118.484H102.179C103.661 118.484 104.936 119.567 105.144 121.05L106.817 132.413L131.154 130.676L132.015 118.356C132.111 116.89 133.258 115.71 134.725 115.567L162.616 112.873C162.696 112.873 162.776 112.873 162.871 112.873V109.24V67.3702H162.967C166.664 62.6525 170.075 57.6799 173.358 52.3884C169.007 44.9772 163.668 38.347 157.962 32.2108H158.01ZM47.9577 102.657C38.6818 102.657 31.1431 95.1343 31.1431 85.8424C31.1431 76.5505 38.6658 69.0437 47.9577 69.0437C57.2496 69.0437 64.7724 76.5665 64.7724 85.8424C64.7724 95.1184 57.2496 102.657 47.9577 102.657ZM127.042 102.657C117.751 102.657 110.228 95.1343 110.228 85.8424C110.228 76.5505 117.751 69.0437 127.042 69.0437C136.334 69.0437 143.841 76.5665 143.841 85.8424C143.841 95.1184 136.318 102.657 127.042 102.657Z" stroke="#202020" stroke-width="6" stroke-linecap="round" stroke-linejoin="round"/>
<path d="M49.5676 83.3721C47.6391 83.3721 46.0771 84.934 46.0771 86.8625C46.0771 88.791 47.6391 90.337 49.5676 90.337C51.4961 90.337 53.058 88.7751 53.058 86.8625C53.058 84.9499 51.4961 83.3721 49.5676 83.3721Z" fill="#202020"/>
<path d="M87.5 83.5156V99.5493" stroke="#202020" stroke-width="6" stroke-linecap="round" stroke-linejoin="round"/>
</g>
<defs>
<clipPath id="clip0_3536_4445">
<rect width="175" height="165.214" fill="white" transform="translate(0 0.892578)"/>
</clipPath>
</defs>
</svg>
