<svg width="191" height="201" viewBox="0 0 191 201" fill="none" xmlns="http://www.w3.org/2000/svg">
<g clip-path="url(#clip0_3536_4119)">
<path d="M152.318 118.682V48.682H112.318V8.682H28.6818V118.682H22.3181V2.31836H119.754L158.682 41.2456V118.682H152.318Z" fill="#202020"/>
<path d="M118.991 4.13636L156.864 42.0091V116.864H154.136V46.8636H114.136V6.86364H26.8636V116.864H24.1364V4.13636H118.991ZM120.5 0.5H20.5V120.5H30.5V10.5H110.5V50.5H150.5V120.5H160.5V40.5L120.5 0.5Z" fill="#202020"/>
<path d="M118.682 42.3182V9.64551L151.354 42.3182H118.682Z" fill="#FAFAFA"/>
<path d="M120.5 14.0273L146.973 40.5H120.5V14.0273ZM116.864 5.26367V44.1364H155.736L149.536 37.9364L123.064 11.4637L116.864 5.26367Z" fill="#202020"/>
<path d="M158.682 192.318H22.3181V198.682H158.682V192.318Z" fill="#202020"/>
<path d="M156.864 194.136V196.864H24.1364V194.136H156.864ZM160.5 190.5H20.5V200.5H160.5V190.5Z" fill="#202020"/>
<path d="M32.3181 178.682V158.682H8.68175V178.682H2.31812V132.318H8.68175V152.318H32.3181V132.318H38.6818V178.682H32.3181Z" fill="#202020"/>
<path d="M36.8636 134.136V176.864H34.1364V156.864H6.86364V176.864H4.13636V134.136H6.86364V154.136H34.1364V134.136H36.8636ZM40.5 130.5H30.5V150.5H10.5V130.5H0.5V180.5H10.5V160.5H30.5V180.5H40.5V130.5Z" fill="#202020"/>
<path d="M67.3181 178.682V138.682H52.3181V132.318H88.6818V138.682H73.6818V178.682H67.3181Z" fill="#202020"/>
<path d="M86.8636 134.136V136.864H71.8636V176.864H69.1364V136.864H54.1364V134.136H86.8636ZM90.5 130.5H50.5V140.5H65.5V180.5H75.5V140.5H90.5V130.5Z" fill="#202020"/>
<path d="M132.318 178.681V143.208L122.773 152.754C122.773 152.754 121.627 153.736 120.318 153.736C119.591 153.736 118.918 153.408 118.245 152.754L108.7 143.208V178.681H102.318V135.499C102.354 134.808 102.7 132.317 105.445 132.317H105.754C106.1 132.299 106.918 132.39 107.773 133.245L120.5 145.99L133.245 133.245C133.554 132.954 134.445 132.317 135.136 132.317C135.173 132.317 138.682 132.408 138.682 135.499V178.681H132.3H132.318Z" fill="#202020"/>
<path d="M135.155 134.136C135.155 134.136 136.882 134.136 136.882 135.5V176.863H134.136V138.809L127.936 145.009L121.591 151.354C121.3 151.591 120.736 151.9 120.336 151.9C120.245 151.9 120.009 151.9 119.555 151.445L113.118 145.009L106.918 138.809V176.863H104.173V135.627C104.3 134.136 105.1 134.136 105.482 134.136L105.573 134.245L105.936 134.136C106.064 134.172 106.264 134.281 106.518 134.536L117.955 146.009L120.518 148.591L123.1 146.009L134.518 134.591C134.736 134.391 135.1 134.172 135.173 134.136M105.791 130.481C105.573 130.481 105.445 130.5 105.445 130.5C100.682 130.5 100.5 135.5 100.5 135.5V180.5H110.518V147.591L116.955 154.027C118.1 155.172 119.264 155.536 120.318 155.536C122.427 155.536 124.045 154.027 124.045 154.027L130.482 147.591V180.5H140.5V135.5C140.5 131.572 136.809 130.5 135.136 130.5C133.464 130.5 131.955 131.972 131.955 131.972L120.482 143.445C120.482 143.445 110.809 133.772 109.045 131.972C107.736 130.663 106.391 130.481 105.773 130.481H105.791Z" fill="#202020"/>
<path d="M152.318 178.682V132.318H158.682V172.318H188.682V178.682H152.318Z" fill="#202020"/>
<path d="M156.864 134.136V174.136H186.864V176.864H154.136V134.136H156.864ZM160.5 130.5H150.5V180.5H190.5V170.5H160.5V130.5Z" fill="#202020"/>
</g>
<defs>
<clipPath id="clip0_3536_4119">
<rect width="190" height="200" fill="white" transform="translate(0.5 0.5)"/>
</clipPath>
</defs>
</svg>
