<svg width="40" height="40" viewBox="0 0 40 40" fill="none" xmlns="http://www.w3.org/2000/svg">
<g clip-path="url(#clip0_3633_8)">
<path d="M29.3334 9.33331H32M12 1.33331H28C30.829 1.33331 33.5421 2.45712 35.5425 4.45751C37.5429 6.4579 38.6667 9.171 38.6667 12V28C38.6667 30.829 37.5429 33.5421 35.5425 35.5425C33.5421 37.5428 30.829 38.6666 28 38.6666H12C9.17106 38.6666 6.45796 37.5428 4.45757 35.5425C2.45718 33.5421 1.33337 30.829 1.33337 28V12C1.33337 9.171 2.45718 6.4579 4.45757 4.45751C6.45796 2.45712 9.17106 1.33331 12 1.33331ZM20 28C17.8783 28 15.8435 27.1571 14.3432 25.6568C12.8429 24.1565 12 22.1217 12 20C12 17.8782 12.8429 15.8434 14.3432 14.3431C15.8435 12.8428 17.8783 12 20 12C22.1218 12 24.1566 12.8428 25.6569 14.3431C27.1572 15.8434 28 17.8782 28 20C28 22.1217 27.1572 24.1565 25.6569 25.6568C24.1566 27.1571 22.1218 28 20 28Z" stroke="#202020" stroke-width="3.33333"/>
</g>
<defs>
<clipPath id="clip0_3633_8">
<rect width="40" height="40" fill="white"/>
</clipPath>
</defs>
</svg>
