<svg width="133" height="175" viewBox="0 0 133 175" fill="none" xmlns="http://www.w3.org/2000/svg">
<g clip-path="url(#clip0_3536_4254)">
<path d="M2.46582 173.409V1.59082H87.7226L121.784 35.6522V103.409H116.216V42.159H81.2158V7.159H8.034V167.841H121.784V173.409H2.46582Z" fill="#202020"/>
<path d="M87.0545 3.18182L120.193 36.3205V101.818H117.807V40.5682H82.8068V5.56818H6.44318V169.432H120.193V171.818H4.05682V3.18182H87.0545ZM88.375 0H0.875V175H123.375V166.25H9.625V8.75H79.625V43.75H114.625V105H123.375V35L88.375 0Z" fill="#202020"/>
<path d="M86.7842 36.5906V8.00195L115.373 36.5906H86.7842Z" fill="#FAFAFA"/>
<path d="M88.3752 11.8362L111.539 34.9998H88.3752V11.8362ZM85.1934 4.16797V38.1816H119.207L113.782 32.7566L90.6184 9.59297L85.1934 4.16797Z" fill="#202020"/>
<path d="M70.8752 155.909C57.8297 155.909 55.4752 145.743 55.0615 141.591H60.7411C61.457 145.25 64.1615 150.341 70.8911 150.341C78.607 150.341 80.9933 144.375 81.1683 141.241L81.232 115.341H86.8002L86.7365 141.607C86.6888 142.068 85.3842 155.909 70.8911 155.909H70.8752Z" fill="#202020"/>
<path d="M85.1932 116.932L85.1295 141.448C84.9545 143.214 83.3318 154.318 70.875 154.318C60.6932 154.318 57.75 147.445 56.9068 143.182H59.4841C60.6614 147.191 63.875 151.932 70.875 151.932C79.1477 151.932 82.5045 145.584 82.7273 141.32V141.241V141.161L82.7909 116.948H85.1773M88.375 113.75H79.625L79.5614 141.145C79.5614 141.145 79.1318 148.75 70.875 148.75C62.6182 148.75 62.125 140 62.125 140H53.375C53.375 142.848 54.6795 157.5 70.875 157.5C87.0705 157.5 88.3114 141.607 88.3114 141.607L88.375 113.75Z" fill="#202020"/>
<path d="M98.7158 155.909V150.341H119C121.402 150.309 124.966 148.702 124.966 144.375C124.966 140.048 121.402 138.441 119.016 138.409H110.25C109.773 138.409 98.7158 138.266 98.7158 126.875C98.7158 115.484 109.773 115.341 110.25 115.341H130.534V120.909H110.298C110.298 120.909 110.186 120.909 110.059 120.909C107.402 120.909 104.284 122.468 104.284 126.875C104.284 131.282 107.386 132.841 110.059 132.841C110.266 132.841 110.377 132.841 110.377 132.841H119C120.193 132.841 130.534 133.175 130.534 144.375C130.534 155.575 120.193 155.909 119.016 155.909H98.7158Z" fill="#202020"/>
<path d="M128.943 116.932V119.318H110.345C110.345 119.318 110.17 119.318 110.059 119.318C106.511 119.318 102.693 121.689 102.693 126.875C102.693 132.061 106.511 134.432 110.059 134.432C110.17 134.432 110.266 134.432 110.345 134.432H119.032C120.686 134.432 128.959 134.909 128.959 144.375C128.959 153.841 120.686 154.318 119.016 154.318H100.323V151.932H119.048C122.07 151.9 126.573 149.864 126.573 144.375C126.573 138.886 122.07 136.85 119.016 136.818H110.266C108.611 136.818 100.323 136.277 100.323 126.875C100.323 117.473 108.611 116.948 110.266 116.932H128.959M110.25 113.75C110.043 113.75 97.125 113.798 97.125 126.875C97.125 139.952 110.043 140 110.25 140H119C119 140 123.375 140.048 123.375 144.375C123.375 148.702 119 148.75 119 148.75H97.125V157.5H119C119 157.5 119 157.5 119.016 157.5C119.541 157.5 132.125 157.373 132.125 144.375C132.125 131.377 119.541 131.25 119.016 131.25H119H110.25C110.25 131.25 110.186 131.25 110.059 131.25C109.216 131.25 105.875 130.995 105.875 126.875C105.875 122.755 109.2 122.5 110.059 122.5C110.186 122.5 110.25 122.5 110.25 122.5H132.125V113.75H110.25Z" fill="#202020"/>
</g>
<defs>
<clipPath id="clip0_3536_4254">
<rect width="131.25" height="175" fill="white" transform="translate(0.875)"/>
</clipPath>
</defs>
</svg>
