<svg width="40" height="40" viewBox="0 0 40 40" fill="none" xmlns="http://www.w3.org/2000/svg">
<path d="M20.0016 15.9166C21.53 14.355 23.52 13.3333 25.835 13.3333C28.2661 13.3333 30.5977 14.2991 32.3168 16.0182C34.0359 17.7373 35.0016 20.0688 35.0016 22.5V35H31.6683V22.5C31.6683 20.9529 31.0537 19.4692 29.9598 18.3752C28.8658 17.2812 27.3821 16.6666 25.835 16.6666C24.2879 16.6666 22.8041 17.2812 21.7102 18.3752C20.6162 19.4692 20.0016 20.9529 20.0016 22.5V35H16.6683V14.1666H20.0016V15.9166ZM8.33496 10.8333C7.67192 10.8333 7.03604 10.5699 6.56719 10.1011C6.09835 9.63224 5.83496 8.99635 5.83496 8.33331C5.83496 7.67027 6.09835 7.03439 6.56719 6.56555C7.03604 6.09671 7.67192 5.83331 8.33496 5.83331C8.998 5.83331 9.63389 6.09671 10.1027 6.56555C10.5716 7.03439 10.835 7.67027 10.835 8.33331C10.835 8.99635 10.5716 9.63224 10.1027 10.1011C9.63389 10.5699 8.998 10.8333 8.33496 10.8333ZM6.66829 14.1666H10.0016V35H6.66829V14.1666Z" fill="#202020"/>
</svg>
