<svg width="107" height="87" viewBox="0 0 107 87" fill="none" xmlns="http://www.w3.org/2000/svg">
<rect x="1" y="1.33594" width="66" height="66" stroke="#202020" stroke-width="2"/>
<path d="M63.6562 70.8984C62.2305 75.3906 59.6133 79.0723 55.8047 81.9434C51.918 84.873 47.5723 86.3379 42.7676 86.3379C36.752 86.3379 31.625 84.209 27.3867 79.9512C23.1289 75.6934 21 70.5566 21 64.541C21 58.5254 23.1289 53.3887 27.3867 49.1309C31.625 44.873 36.752 42.7441 42.7676 42.7441C47.8066 42.7441 52.3086 44.2969 56.2734 47.4023C60.1602 50.4688 62.709 54.3848 63.9199 59.1504H60.4629C59.291 55.3223 57.0938 52.1973 53.8711 49.7754C50.5898 47.3145 46.8887 46.084 42.7676 46.084C37.6699 46.084 33.334 47.8809 29.7598 51.4746C26.1465 55.0879 24.3398 59.4434 24.3398 64.541C24.3398 69.6387 26.1367 73.9844 29.7305 77.5781C33.3242 81.1914 37.6699 82.998 42.7676 82.998C46.0098 82.998 49.0664 82.168 51.9375 80.5078C54.6719 78.9062 56.8789 76.7578 58.5586 74.0625H35.4727V70.8984H63.6562ZM103.436 82.5879V85.6641H71.4727V43.6816H74.5488V82.5879H103.436Z" fill="#202020"/>
</svg>
