<svg width="46" height="46" viewBox="0 0 46 46" fill="none" xmlns="http://www.w3.org/2000/svg">
<path d="M9.155 36.125C8.29125 36.125 7.57063 35.8363 6.99313 35.2588C6.41563 34.6812 6.12625 33.96 6.125 33.095V12.905C6.125 12.0413 6.41438 11.3206 6.99313 10.7431C7.57188 10.1656 8.29187 9.87625 9.15312 9.875H36.8469C37.7094 9.875 38.4294 10.1644 39.0069 10.7431C39.5844 11.3219 39.8737 12.0425 39.875 12.905V33.0969C39.875 33.9594 39.5856 34.68 39.0069 35.2588C38.4281 35.8375 37.7081 36.1262 36.8469 36.125H9.155ZM23 23.2175L8 13.4094V33.0969C8 33.4331 8.10812 33.7094 8.32437 33.9256C8.54062 34.1419 8.8175 34.25 9.155 34.25H36.8469C37.1831 34.25 37.4594 34.1419 37.6756 33.9256C37.8919 33.7094 38 33.4325 38 33.095V13.4075L23 23.2175ZM23 21.125L37.4225 11.75H8.5775L23 21.125ZM8 13.4094V11.75V33.0969C8 33.4331 8.10812 33.7094 8.32437 33.9256C8.54062 34.1419 8.8175 34.25 9.155 34.25H8V13.4094Z" fill="#202020"/>
</svg>
