<svg width="105" height="106" viewBox="0 0 105 106" fill="none" xmlns="http://www.w3.org/2000/svg">
<path d="M54.7759 15.4108L57.8278 3.27135L60.1509 3.85842L63.1635 13.731L61.9326 13.4199L69.166 6.13659L71.4718 6.71927L68.4546 18.8675L65.8194 18.2016L67.8381 10.0984L68.3235 10.2211L62.5533 16.0114L61.2877 15.6916L58.8577 7.82904L59.4471 7.97799L57.4111 16.0768L54.7759 15.4108Z" fill="#202020"/>
<path d="M78.6582 17.0146L83.3832 20.7547L81.9892 22.5249L77.2642 18.7847L78.6582 17.0146ZM75.6402 21.1938L80.9822 25.4223L79.544 27.2486L71.9447 21.2333L79.6889 11.3992L87.1059 17.2702L85.6677 19.0966L80.508 15.0123L75.6402 21.1938Z" fill="#202020"/>
<path d="M81.8114 29.7529L92.662 23.5122L93.852 25.592L89.7073 36.4953L89.1301 35.4865L96.9425 30.9932L98.3634 33.4765L87.5128 39.7172L86.3317 37.6529L90.4675 26.7341L91.0448 27.7429L83.2323 32.2362L81.8114 29.7529Z" fill="#202020"/>
<path d="M89.1379 49.3452C88.9541 47.5785 89.3025 46.1457 90.183 45.0468C91.0634 43.9479 92.4166 43.303 94.2425 43.112L101.214 42.383L101.514 45.2643L94.649 45.9822C93.4633 46.1062 92.635 46.4385 92.1638 46.9792C91.6927 47.5199 91.5028 48.229 91.5941 49.1064C91.6854 49.9838 92.0171 50.6383 92.5894 51.0699C93.1617 51.5015 94.0406 51.6553 95.2263 51.5313L102.091 50.8135L102.387 53.6592L95.4156 54.3882C93.5897 54.5792 92.1329 54.2281 91.0452 53.335C89.9575 52.4419 89.3217 51.112 89.1379 49.3452Z" fill="#202020"/>
<path d="M90.1832 66.0968C90.3078 65.7111 90.514 65.3832 90.8017 65.1132C91.0971 64.8582 91.4347 64.6858 91.8145 64.5961C92.2056 64.5101 92.6109 64.5352 93.0304 64.6715C93.4499 64.8078 93.7872 65.0239 94.0424 65.3199C94.2975 65.6159 94.4645 65.9521 94.5432 66.3287C94.6297 66.7202 94.6106 67.1089 94.4859 67.4945C94.3613 67.8802 94.1512 68.2006 93.8559 68.4556C93.5681 68.7256 93.2344 68.9055 92.8546 68.9952C92.4748 69.0849 92.0752 69.0616 91.6557 68.9253C91.2362 68.789 90.8932 68.5711 90.6267 68.2714C90.3716 67.9754 90.2008 67.6317 90.1143 67.2401C90.0356 66.8636 90.0585 66.4824 90.1832 66.0968Z" fill="#202020"/>
<path d="M83.9252 74.171L92.8794 82.9176L91.2095 84.636L81.1767 82.285L82.0615 81.3745L84.7293 91.3045L83.0718 93.0101L74.0927 84.2892L75.9869 82.3399L81.9731 88.1623L81.6242 88.5214L79.5131 80.61L80.4228 79.6738L88.4284 81.5195L88.0047 81.9555L82.031 76.1203L83.9252 74.171Z" fill="#202020"/>
<path d="M70.5984 94.1148L65.0011 96.3475L64.1701 94.2533L69.7673 92.0206L70.5984 94.1148ZM68.4995 89.4075L62.1714 91.9318L61.3139 89.7711L70.3161 86.1801L74.9332 97.8147L66.147 101.32L65.2895 99.1588L71.4017 96.7206L68.4995 89.4075Z" fill="#202020"/>
<path d="M57.9831 90.492L57.9154 103.009L55.5193 102.996L48.1829 93.9436L49.3452 93.9499L49.2965 102.962L46.4354 102.947L46.5032 90.4296L48.8814 90.4425L56.2356 99.4951L55.0733 99.4888L55.122 90.4765L57.9831 90.492Z" fill="#202020"/>
<path d="M37.3539 87.0108C38.9739 87.7393 40.0385 88.7605 40.5478 90.0744C41.057 91.3882 40.9368 92.8831 40.1871 94.5589L37.3246 100.957L34.6826 99.7694L37.5012 93.4688C37.9881 92.3806 38.1157 91.4969 37.8841 90.8176C37.6525 90.1383 37.1345 89.6178 36.3299 89.256C35.5253 88.8942 34.7931 88.8525 34.1331 89.1308C33.4731 89.4092 32.8997 90.0925 32.4129 91.1807L29.5943 97.4813L26.9849 96.3079L29.8473 89.9093C30.597 88.2335 31.6306 87.1494 32.9479 86.6568C34.2652 86.1643 35.7339 86.2823 37.3539 87.0108Z" fill="#202020"/>
<path d="M22.4511 79.525C22.7219 79.8265 22.9021 80.1698 22.9915 80.5548C23.0641 80.939 23.0443 81.3183 22.932 81.6927C22.8108 82.0752 22.5865 82.4142 22.2591 82.7098C21.9317 83.0054 21.5765 83.1896 21.1933 83.2626C20.8101 83.3355 20.4362 83.3117 20.0716 83.1912C19.6901 83.0698 19.364 82.8583 19.0931 82.5568C18.8223 82.2553 18.6506 81.9124 18.5779 81.5283C18.4885 81.1433 18.4999 80.7635 18.6123 80.3891C18.7246 80.0146 18.9444 79.6796 19.2718 79.384C19.5992 79.0884 19.9589 78.9002 20.3509 78.8192C20.7341 78.7463 21.1164 78.7706 21.4979 78.8919C21.8625 79.0124 22.1802 79.2235 22.4511 79.525Z" fill="#202020"/>
<path d="M18.6193 70.0492L6.56951 73.4379L5.92392 71.1304L12.9919 63.6072L13.334 64.8298L3.41863 62.1757L2.77786 59.8854L14.818 56.4622L15.5503 59.0797L7.51622 61.3577L7.38132 60.8755L15.2738 63.0026L15.6255 64.2597L10.0119 70.2779L9.84806 69.6924L17.887 67.4317L18.6193 70.0492Z" fill="#202020"/>
<path d="M8.09808 48.4499L8.97515 42.4879L11.204 42.8175L10.3269 48.7794L8.09808 48.4499ZM13.2239 48.9909L14.2154 42.2505L16.5151 42.5906L15.1045 52.1793L2.72187 50.3482L4.09865 40.9895L6.39827 41.3295L5.44052 47.84L13.2239 48.9909Z" fill="#202020"/>
<path d="M17.5405 39.3481L6.75827 32.99L7.97073 30.9232L19.4708 29.1311L18.8827 30.1336L11.1195 25.5558L12.5672 23.088L23.3494 29.4461L22.146 31.4975L10.6369 33.305L11.225 32.3025L18.9882 36.8803L17.5405 39.3481Z" fill="#202020"/>
<path d="M30.8663 23.2105C29.4278 24.2526 28.0139 24.666 26.6244 24.4507C25.235 24.2355 24.0036 23.3831 22.9302 21.8938L18.8319 16.207L21.1779 14.5076L25.2134 20.1073C25.9104 21.0744 26.6102 21.6274 27.3127 21.7662C28.0152 21.905 28.7236 21.7156 29.438 21.1981C30.1524 20.6805 30.5542 20.0656 30.6434 19.3534C30.7325 18.6411 30.4286 17.8014 29.7316 16.8342L25.696 11.2345L28.013 9.55606L32.1113 15.2428C33.1847 16.7322 33.6052 18.172 33.3727 19.5622C33.1403 20.9524 32.3048 22.1685 30.8663 23.2105Z" fill="#202020"/>
<path d="M44.8059 13.9924C44.4093 14.0758 44.0222 14.0598 43.6449 13.9442C43.2767 13.8145 42.9593 13.6072 42.6926 13.3222C42.4235 13.0255 42.2438 12.6613 42.1535 12.2295C42.0632 11.7978 42.083 11.3977 42.213 11.0293C42.3429 10.6609 42.5517 10.349 42.8393 10.0936C43.1361 9.82407 43.4828 9.64761 43.8795 9.5642C44.2761 9.48079 44.6585 9.50392 45.0267 9.6336C45.4041 9.74915 45.7261 9.94943 45.9927 10.2344C46.2594 10.5195 46.4379 10.8778 46.5282 11.3096C46.6186 11.7413 46.6 12.1472 46.4724 12.5273C46.3425 12.8957 46.1291 13.2147 45.8323 13.4842C45.5447 13.7396 45.2025 13.909 44.8059 13.9924Z" fill="#202020"/>
</svg>
