<svg width="46" height="46" viewBox="0 0 46 46" fill="none" xmlns="http://www.w3.org/2000/svg">
<path d="M39.5885 28.3543L31.3074 24.6436L31.2846 24.633C30.8547 24.4491 30.3857 24.3754 29.9201 24.4183C29.4545 24.4613 29.007 24.6197 28.618 24.8791C28.5721 24.9093 28.5281 24.9422 28.4861 24.9776L24.2076 28.625C21.4971 27.3084 18.6986 24.5311 17.382 21.8557L21.0348 17.5121C21.0699 17.4682 21.1033 17.4242 21.1349 17.3768C21.3888 16.9888 21.5429 16.5441 21.5833 16.0823C21.6238 15.6204 21.5495 15.1557 21.367 14.7295V14.7084L17.6457 6.41329C17.4044 5.85653 16.9895 5.39273 16.463 5.09113C15.9365 4.78953 15.3265 4.66631 14.7242 4.73985C12.3423 5.05328 10.156 6.22304 8.5735 8.03065C6.99104 9.83825 6.12068 12.1601 6.12499 14.5625C6.12499 28.5195 17.4805 39.875 31.4375 39.875C33.8399 39.8793 36.1617 39.009 37.9694 37.4265C39.777 35.844 40.9467 33.6577 41.2601 31.2758C41.3338 30.6737 41.2109 30.0639 40.9096 29.5374C40.6083 29.0109 40.1449 28.5959 39.5885 28.3543ZM31.4375 37.0625C25.4721 37.056 19.7529 34.6834 15.5348 30.4652C11.3166 26.2471 8.944 20.5279 8.93749 14.5625C8.93087 12.846 9.54929 11.1857 10.6773 9.89184C11.8052 8.59793 13.3656 7.75884 15.067 7.53126C15.0663 7.53827 15.0663 7.54534 15.067 7.55235L18.7584 15.8141L15.125 20.1629C15.088 20.2053 15.0545 20.2505 15.0248 20.2983C14.7603 20.7042 14.6051 21.1715 14.5743 21.655C14.5435 22.1386 14.6381 22.6218 14.849 23.058C16.4416 26.3152 19.7234 29.5725 23.0158 31.1633C23.4552 31.3722 23.9413 31.4636 24.4265 31.4284C24.9118 31.3933 25.3796 31.2329 25.7844 30.9629C25.8296 30.9326 25.873 30.8998 25.9144 30.8645L30.1877 27.2188L38.4494 30.919H38.4687C38.2439 32.6227 37.4061 34.1863 36.112 35.317C34.8178 36.4478 33.156 37.0683 31.4375 37.0625Z" fill="#202020"/>
</svg>
