<svg width="175" height="175" viewBox="0 0 175 175" fill="none" xmlns="http://www.w3.org/2000/svg">
<g clip-path="url(#clip0_3536_4040)">
<path d="M171.818 3.18182V171.818H3.18182V3.18182H171.818ZM175 0H0V175H175V0Z" fill="#202020"/>
<path d="M42.2545 41.1247V121.561C42.2545 121.561 42.1431 122.436 43.0977 122.436H54.3613C54.3613 122.436 55.2045 122.563 55.2045 121.561V92.8133C55.2045 92.8133 60.2795 92.9406 60.8522 92.9406C61.4249 92.9406 90.7454 94.3406 90.7454 65.7997C90.7454 39.8838 61.759 39.8838 61.759 39.8838C61.759 39.8838 48.6658 39.9474 42.9863 40.2656C42.9863 40.2656 42.2545 40.377 42.2545 41.3633V41.1247Z" fill="#202020" stroke="#202020" stroke-width="2" stroke-miterlimit="10"/>
<path d="M55.2046 51.9911V80.8661C55.2046 80.8661 77.6364 85.4161 77.6364 66.0548C77.6364 48.2684 55.2046 51.9911 55.2046 51.9911Z" fill="#FAFAFA" stroke="#202020" stroke-width="2" stroke-miterlimit="10"/>
<path d="M131.759 74.4066V64.1612C131.759 64.1612 131.791 62.9839 131.027 62.6657C130.264 62.3476 126.255 60.3907 117.982 60.5657C109.709 60.7407 98.3978 64.0976 97.8569 78.2089C97.8569 78.2089 96.4251 90.618 112.509 97.0612C128.593 103.504 119.859 112.668 113.384 111.873C113.384 111.873 105.923 112.238 98.7319 107.466C98.7319 107.466 97.8569 106.686 97.8569 108.07V119.063C97.8569 119.063 97.7297 119.859 98.4456 120.257C99.1615 120.654 103.409 123.343 113.4 123.47C123.391 123.598 134.018 118.984 134.321 105.079C134.321 105.079 136.564 92.7816 119.302 85.9407C104.777 77.5726 111.189 73.3726 117.982 71.8135C117.982 71.8135 124.775 71.2566 130.661 75.1862C130.661 75.1862 131.33 75.4566 131.759 74.4385V74.4066Z" fill="#202020" stroke="#202020" stroke-width="2" stroke-miterlimit="10"/>
</g>
<defs>
<clipPath id="clip0_3536_4040">
<rect width="175" height="175" fill="white"/>
</clipPath>
</defs>
</svg>
