<svg width="175" height="175" viewBox="0 0 175 175" fill="none" xmlns="http://www.w3.org/2000/svg">
<g clip-path="url(#clip0_3536_4072)">
<path d="M171.818 3.18182V171.818H3.18182V3.18182H171.818ZM175 0H0V175H175V0Z" fill="#202020"/>
<path d="M45.9137 40.9655V121.402C45.9137 121.402 45.8023 122.277 46.7568 122.277H58.0205C58.0205 122.277 58.8637 122.404 58.8637 121.402V92.6542C58.8637 92.6542 63.9387 92.7814 64.5114 92.7814C65.0841 92.7814 94.4046 94.1814 94.4046 65.6405C94.4046 39.7246 65.4182 39.7246 65.4182 39.7246C65.4182 39.7246 52.325 39.7882 46.6455 40.1064C46.6455 40.1064 45.9137 39.9792 45.9137 40.9655Z" fill="#202020" stroke="#202020" stroke-width="2" stroke-miterlimit="10"/>
<path d="M58.8635 51.832V80.707C58.8635 80.707 81.2953 85.257 81.2953 65.8956C81.2953 48.1092 58.8635 51.832 58.8635 51.832Z" fill="#FAFAFA" stroke="#202020" stroke-width="2" stroke-miterlimit="10"/>
<path d="M105.159 66.6269C105.159 66.6269 105.525 70.27 105.525 73.8973V121.402C105.525 121.402 105.493 122.277 106.368 122.277H117.807C117.807 122.277 118.65 122.372 118.65 121.402V74.2791C118.65 74.2791 122.786 72.4178 132.427 72.7996C132.984 72.7996 133.223 72.6723 133.223 72.0519V61.1859C133.223 61.1859 133.414 60.4382 132.38 60.4382C131.345 60.4382 120.527 60.0087 105.716 65.6246C105.716 65.6246 105.08 65.7359 105.143 66.6109L105.159 66.6269Z" fill="#202020" stroke="#202020" stroke-width="2" stroke-miterlimit="10"/>
</g>
<defs>
<clipPath id="clip0_3536_4072">
<rect width="175" height="175" fill="white"/>
</clipPath>
</defs>
</svg>
