<svg width="175" height="175" viewBox="0 0 175 175" fill="none" xmlns="http://www.w3.org/2000/svg">
<mask id="path-1-inside-1_3536_4490" fill="white">
<path d="M170.106 4.90892V170.106H4.90892V4.90892H170.106ZM173.223 1.79199H1.79199V173.223H173.223V1.79199Z"/>
</mask>
<path d="M170.106 4.90892V170.106H4.90892V4.90892H170.106ZM173.223 1.79199H1.79199V173.223H173.223V1.79199Z" fill="#202020"/>
<path d="M170.106 4.90892H176.106V-1.09108H170.106V4.90892ZM170.106 170.106V176.106H176.106V170.106H170.106ZM4.90892 170.106H-1.09108V176.106H4.90892V170.106ZM4.90892 4.90892V-1.09108H-1.09108V4.90892H4.90892ZM173.223 1.79199H179.223V-4.20801H173.223V1.79199ZM1.79199 1.79199V-4.20801H-4.20801V1.79199H1.79199ZM1.79199 173.223H-4.20801V179.223H1.79199V173.223ZM173.223 173.223V179.223H179.223V173.223H173.223ZM164.106 4.90892V170.106H176.106V4.90892H164.106ZM170.106 164.106H4.90892V176.106H170.106V164.106ZM10.9089 170.106V4.90892H-1.09108V170.106H10.9089ZM4.90892 10.9089H170.106V-1.09108H4.90892V10.9089ZM173.223 -4.20801H1.79199V7.79199H173.223V-4.20801ZM-4.20801 1.79199V173.223H7.79199V1.79199H-4.20801ZM1.79199 179.223H173.223V167.223H1.79199V179.223ZM179.223 173.223V1.79199H167.223V173.223H179.223Z" fill="#202020" mask="url(#path-1-inside-1_3536_4490)"/>
<path d="M97.0146 77.3936H78.5156V96.2977H97.0146V77.3936Z" fill="#202020" stroke="#202020" stroke-width="6" stroke-miterlimit="10"/>
<path d="M45.8498 24.2344H24.6235V45.9126H45.8498V24.2344Z" fill="#202020" stroke="#202020" stroke-width="6" stroke-miterlimit="10"/>
<path d="M150.299 24.2344H129.072V45.9126H150.299V24.2344Z" fill="#202020" stroke="#202020" stroke-width="6" stroke-miterlimit="10"/>
<path d="M150.299 128.683H129.072V150.361H150.299V128.683Z" fill="#202020" stroke="#202020" stroke-width="6" stroke-miterlimit="10"/>
<path d="M45.8498 128.683H24.6235V150.361H45.8498V128.683Z" fill="#202020" stroke="#202020" stroke-width="6" stroke-miterlimit="10"/>
<path d="M87.7569 123.212C107.837 123.212 124.116 106.934 124.116 86.8531C124.116 66.7726 107.837 50.4941 87.7569 50.4941C67.6764 50.4941 51.3979 66.7726 51.3979 86.8531C51.3979 106.934 67.6764 123.212 87.7569 123.212Z" stroke="#202020" stroke-width="6" stroke-miterlimit="10"/>
<path d="M45.8501 128.683L62.3231 112.817" stroke="#202020" stroke-width="6" stroke-miterlimit="10"/>
<path d="M129.072 128.683L113.207 112.817" stroke="#202020" stroke-width="6" stroke-miterlimit="10"/>
<path d="M129.072 45.9277L113.643 61.3098" stroke="#202020" stroke-width="6" stroke-miterlimit="10"/>
<path d="M45.8501 45.9277L61.8867 61.3098" stroke="#202020" stroke-width="6" stroke-miterlimit="10"/>
<path d="M87.7573 169.935V123.212" stroke="#202020" stroke-width="6" stroke-miterlimit="10"/>
<path d="M87.7573 1.79199V50.494" stroke="#202020" stroke-width="6" stroke-miterlimit="10"/>
</svg>
