<?xml version="1.0" encoding="UTF-8"?>
<svg id="Calque_1" data-name="Calque 1" xmlns="http://www.w3.org/2000/svg" viewBox="0 0 384 384">
  <path class="cls-1" d="M384,384H0V0h384v384ZM135.47,262.87c-10.61,10.59-20.83,20.79-31.41,31.35v41.92h-56.42v-56.24h42.13c10.92-10.83,21.13-20.95,31.32-31.06-25.1-32.07-27.72-77.48.03-113.93-10.16-10.18-20.33-20.37-30.92-30.98h-42.52v-56.29h56.53v41.9c10.91,11.08,21.02,21.35,31.16,31.65,13.95-11.18,29.84-17.53,47.51-19.53V9.73H9.76v364.43h173.05v-91.81c-17.57-1.99-33.54-8.25-47.34-19.48ZM201.19,374.32h173V9.66h-173v91.91c17.66,2.14,33.63,8.41,47.45,19.58,10.45-10.24,20.84-20.41,31.33-30.68v-42.83h56.18v56.71h-42.19c-10.65,10.65-20.86,20.86-31.01,31.01,12.03,15.28,18.74,32.64,19.63,52.09,1.05,22.87-5.61,43.39-19.52,61.02,10.45,10.57,20.7,20.92,31.07,31.41h42.01v56.31h-56.37v-42.35c-10.47-10.53-20.63-20.75-30.91-31.1-14.01,11.15-29.93,17.49-47.89,19.66,0,30.24,0,60.2,0,90.17,0,.49.11.97.21,1.75ZM265.08,192.07c-.01-40.66-32.6-73.14-73.41-73.16-40.17-.02-72.77,32.81-72.76,73.26.01,40.28,32.73,72.89,73.14,72.9,40.32.02,73.03-32.69,73.02-73.01Z"/>
  <path class="cls-1" d="M212.79,171.38v41.25h-41.41v-41.25h41.41Z"/>
</svg>