<svg width="81" height="80" viewBox="0 0 81 80" fill="none" xmlns="http://www.w3.org/2000/svg">
<g clip-path="url(#clip0_3425_2469)">
<path d="M39.5546 70.8582L34.6455 62.4582L24.7109 62.5382L1.54004 40.0073L24.7109 17.4764L34.6528 17.5491L39.54 9.14181L71.2346 0.887268L79.7146 31.6727L74.6819 40L79.7146 48.3491L71.2346 79.12L39.5546 70.8582Z" fill="#202020"/>
<path d="M70.7255 1.76727L78.9364 31.5564L74.2891 39.2509L73.8382 40L74.2891 40.7491L78.9364 48.4509L70.7255 78.2327L40.0345 70.2327L35.4891 62.4509L35.0673 61.7236H34.2236L25.0091 61.8036L2.58727 40.0073L25.0018 18.2109L34.2236 18.2764H35.0673L35.4891 17.5564L40.02 9.78182L70.7255 1.76727ZM71.7436 0L39.0673 8.51636L34.2309 16.8145L24.4127 16.7418L0.5 40.0073L24.42 63.2655L34.2309 63.1855L39.0745 71.4836L71.7436 80L80.5 48.2327L75.5255 40L80.5 31.7745L71.7436 0Z" fill="#202020"/>
<path d="M18.7251 35.3454L35.3869 18.8073L58.4996 13.0327L45.256 35.3454H18.7251Z" fill="#FAFAFA"/>
<path d="M56.9871 14.16L44.8417 34.6182H20.4926L35.7581 19.4618L56.9799 14.16M60.0199 11.9055L35.0235 18.1527L16.9653 36.0727H45.6708L60.0199 11.9055Z" fill="#202020"/>
<path d="M35.387 61.2L18.7324 44.6619H45.2488L58.4997 66.9746L35.387 61.2Z" fill="#FAFAFA"/>
<path d="M44.8344 45.3891L56.9799 65.8473L35.7508 60.5455L20.4853 45.3891H44.8272M45.6635 43.9346H16.9653L35.0162 61.8546L60.0126 68.1018L45.6635 43.9346Z" fill="#202020"/>
<path d="M53.5039 40.0072L66.7766 17.6436L73.1839 40L66.7766 62.3491L53.5039 40.0072Z" fill="#FAFAFA"/>
<path d="M66.5438 19.4691L72.4274 40L66.5365 60.5309L54.3474 40.0073L66.5438 19.4691ZM67.0165 15.8254L52.6602 40L67.0165 64.16L73.9474 39.9927L67.0165 15.8182V15.8254Z" fill="#202020"/>
</g>
<defs>
<clipPath id="clip0_3425_2469">
<rect width="80" height="80" fill="white" transform="translate(0.5)"/>
</clipPath>
</defs>
</svg>
