<svg width="175" height="175" viewBox="0 0 175 175" fill="none" xmlns="http://www.w3.org/2000/svg">
<g clip-path="url(#clip0_3536_4308)">
<path d="M36.0501 47.9658C38.4683 47.8067 42.3342 47.5204 44.1319 47.2499C47.7751 46.709 49.0637 43.7817 48.6978 41.2999C48.3001 38.5635 46.391 36.8613 43.7183 36.8613C43.5592 36.8613 43.4001 36.8613 43.2251 36.8772C39.6773 37.1317 27.5705 37.9908 20.3637 37.9908C20.3637 37.9908 18.741 37.9908 17.2773 37.9431C23.1001 29.6226 45.7387 1.63855 87.5001 1.63855C87.6432 1.63855 88.3273 1.59082 89.5683 1.59082C96.7114 1.59082 120.957 3.08627 142.673 21.6522C136.23 22.7658 129.977 27.5545 129.166 38.3567C129.134 38.5635 128.323 45.6431 138.027 59.8817C138.043 59.9295 145.998 73.5476 144.98 82.934V83.1249V83.3158C144.98 83.3954 145.934 91.9067 138.425 110.791L131.091 135.275L101.723 47.934C104.316 47.7431 108.596 47.409 109.789 47.2499C112.732 46.8363 114.53 44.609 114.402 41.5704C114.259 39.6454 112.716 36.8772 109.073 36.8772H108.882C108.739 36.8931 95.0728 37.9908 85.6864 37.9908H85.1933C83.2523 37.9908 75.9183 37.9113 62.7773 36.8931C62.7773 36.8931 62.6342 36.8931 62.4114 36.8931C60.216 36.8931 57.5273 38.2454 57.241 42.0317C57.0183 43.7658 58.0523 46.6931 61.8546 47.2817C64.6069 47.7113 68.3296 47.9658 70.1433 48.0613L83.2205 83.8885L65.7523 136.261L36.0501 47.9658Z" fill="#202020"/>
<path d="M89.5682 3.18182C96.3136 3.18182 118.602 4.53409 139.252 20.9045C133.414 22.9886 128.355 28.2386 127.591 38.1977C127.464 39.5023 127.257 46.8841 136.659 60.6932C137.311 61.8227 144.327 74.2795 143.405 82.775L143.373 83.1568L143.42 83.5068C143.42 83.5864 144.264 91.875 136.961 110.218L136.914 110.345L136.866 110.473L131.011 130.025L103.886 49.3659C106.305 49.175 109.057 48.9523 110.011 48.825C113.766 48.3 116.168 45.3568 115.993 41.4909V41.4432V41.3955C115.802 38.9455 113.798 35.2864 109.089 35.2864H109.009H108.993H108.882H108.77C108.627 35.2864 95.025 36.3841 85.6705 36.3841H85.225C83.3 36.3841 76.0296 36.3045 62.9682 35.2864C62.8887 35.2864 62.6977 35.2705 62.4432 35.2705C59.3568 35.2705 56.0637 37.2909 55.6818 41.8091C55.4114 44.2591 56.7637 48.0614 61.6318 48.825C63.9864 49.1909 67.025 49.4295 69.0137 49.5568L81.55 83.8886L65.7682 131.234L38.2137 49.4136C40.425 49.2545 42.9864 49.0318 44.3705 48.825C48.8886 48.1568 50.7659 44.4182 50.2727 41.0773C49.7637 37.5614 47.1864 35.2705 43.7182 35.2705C43.5273 35.2705 43.3205 35.2705 43.1137 35.2864C39.5818 35.5409 27.5068 36.3841 20.3796 36.3841C23.1637 32.7091 27.7773 27.3477 34.2841 22.0341C49.5409 9.56136 67.4546 3.22955 87.5 3.22955H87.6114H87.7227C87.7227 3.22955 88.3909 3.18182 89.5682 3.18182ZM89.5682 0C88.2318 0 87.5 0.0477273 87.5 0.0477273C37.1318 0.0477273 14.3818 39.4705 14.3818 39.4705C16.3227 39.5341 20.0137 39.5818 20.0137 39.5818C20.125 39.5818 20.2523 39.5818 20.3637 39.5818C27.8887 39.5818 40.7114 38.6591 43.3364 38.4682C43.4637 38.4682 43.5909 38.4682 43.7182 38.4682C45.8341 38.4682 46.8841 39.8682 47.1227 41.5386C47.3773 43.3205 46.5023 45.2932 43.8932 45.6909C41.2841 46.0727 33.8705 46.5182 33.8705 46.5182L65.7364 141.273L84.875 83.8568L71.2409 46.5182C71.2409 46.5182 65.7205 46.2477 62.0614 45.6909C58.4023 45.1341 58.8 42.1432 58.8 42.1432C59.0705 38.7386 61.6 38.4841 62.3955 38.4841C62.5387 38.4841 62.6341 38.4841 62.6341 38.4841C75.9023 39.5182 83.2841 39.5977 85.1932 39.5977C85.5273 39.5977 85.6864 39.5977 85.6864 39.5977C95.2318 39.5977 109.009 38.4841 109.009 38.4841C109.025 38.4841 109.057 38.4841 109.073 38.4841C112.557 38.4841 112.811 41.65 112.811 41.65C112.923 44.2909 111.252 45.4523 109.566 45.6909C107.88 45.9295 99.5591 46.5182 99.5591 46.5182L131.186 140.541L139.92 111.395C147.748 91.7159 146.57 83.1091 146.57 83.1091C147.668 73.0704 139.364 58.9909 139.364 58.9909C129.882 45.0864 130.773 38.4841 130.773 38.4841C131.855 24.0545 142.625 22.9886 145.743 22.9886C146.284 22.9886 146.586 23.0205 146.586 23.0205C123.709 1.60682 97.0773 0 89.5682 0Z" fill="#202020"/>
<path d="M46.4226 162.941C3.80218 139.666 1.59082 96.2026 1.59082 87.5163C1.59082 72.8322 5.26582 61.5367 7.42946 56.1436L46.4226 162.941Z" fill="#202020"/>
<path d="M7.42955 60.7891L43.4318 159.378C5.21818 136.103 3.18182 95.7732 3.18182 87.5164C3.18182 76.1096 5.44091 66.7868 7.42955 60.7891ZM7.57273 51.9277C7.57273 51.9277 0 66.1027 0 87.5164C0 108.93 9.57727 146.635 49.3182 166.235L7.57273 51.9277Z" fill="#202020"/>
<path d="M87.5003 173.409C78.7184 173.409 68.7275 171.246 64.8457 170.307L89.0753 99.9092L114.466 169.002C106.559 171.373 98.4139 173.409 87.4843 173.409H87.5003Z" fill="#202020"/>
<path d="M89.1387 104.666L112.414 167.968C105.127 170.1 97.4751 171.818 87.516 171.818C79.9751 171.818 71.4955 170.179 66.9455 169.161L89.1546 104.666M89.0273 95.168L62.7773 171.436C62.7773 171.436 76.0296 175 87.5001 175C98.9705 175 107.498 172.82 116.55 170.036L89.0273 95.168Z" fill="#202020"/>
<path d="M159.155 88.0412C166.648 70.7957 166.473 55.173 166.457 54.5207C166.457 54.123 166.457 53.7412 166.457 53.3594C173.807 70.2389 173.409 87.2776 173.409 87.4685C173.409 129.691 144.82 152.553 134.448 159.441L159.155 88.0412Z" fill="#202020"/>
<path d="M167.682 61.2021C172.089 75.0589 171.802 87.2612 171.802 87.4203V87.468V87.5157C171.802 108.563 164.802 127.177 151.009 142.863C146.205 148.32 141.368 152.457 137.534 155.32L160.587 88.6771C165.296 77.7953 167.03 67.5817 167.666 61.2021M164.277 45.5635C164.277 45.5635 164.866 48.618 164.866 54.5521C164.866 54.5521 165.136 70.2862 157.643 87.5317L131.489 163.132C131.489 163.132 174.984 140.413 174.984 87.5317C174.984 87.5317 175.668 65.0203 164.261 45.5635H164.277Z" fill="#202020"/>
</g>
<defs>
<clipPath id="clip0_3536_4308">
<rect width="175" height="175" fill="white"/>
</clipPath>
</defs>
</svg>
